<?xml version="1.0" encoding="utf-8"?>
<svg width="42.083252px" height="41.875px" viewBox="0 0 42.083252 41.875" version="1.1" xmlns:xlink="http://www.w3.org/1999/xlink" xmlns="http://www.w3.org/2000/svg">
  <path d="M13.5417 8.33325L9.79175 8.33325C12.9167 5.625 16.6667 4.16675 20.8333 4.16675C21.4583 4.16675 22.0833 4.16675 22.7083 4.375C23.75 4.58325 24.7917 3.75 25 2.5C25.2083 1.45825 24.375 0.416748 23.125 0.208252C22.2917 0 21.6667 0 20.8333 0C15.8333 0 11.0417 1.875 7.29175 5L7.29175 2.08325C7.29175 0.833252 6.45825 0 5.20825 0C3.95825 0 3.125 0.833252 3.125 2.08325L3.125 10.4167C3.125 11.6667 3.95825 12.5 5.20825 12.5L13.5417 12.5C14.7917 12.5 15.625 11.6667 15.625 10.4167C15.625 9.16675 14.7917 8.33325 13.5417 8.33325L13.5417 8.33325ZM10.4167 26.0417C9.16675 26.0417 8.33325 26.875 8.33325 28.125L8.33325 31.875C5.625 28.75 4.16675 25 4.16675 20.8333C4.16675 20.2083 4.16675 19.5833 4.375 18.9583C4.58325 17.9167 3.75 16.875 2.5 16.6667C1.45825 16.4583 0.416748 17.2917 0.208252 18.5417C0 19.375 0 20 0 20.8333C0 25.8333 1.875 30.625 5 34.375L2.08325 34.375C0.833252 34.375 0 35.2083 0 36.4583C0 37.7083 0.833252 38.5417 2.08325 38.5417L10.4167 38.5417C11.0417 38.5417 11.6667 38.125 12.0833 37.7083C12.0833 37.5 12.2917 37.2917 12.2917 37.0833C12.2917 36.875 12.2917 36.875 12.2917 36.6667L12.2917 36.4583L12.2917 28.125C12.5 26.875 11.6667 26.0417 10.4167 26.0417L10.4167 26.0417ZM39.5835 7.29175C40.8335 7.29175 41.6667 6.45825 41.6667 5.20825C41.6667 3.95825 40.8335 3.125 39.5835 3.125L31.2502 3.125C31.0417 3.125 31.0417 3.125 30.8335 3.125C30.6252 3.125 30.4167 3.33325 30.2085 3.33325C30.0002 3.54175 29.7917 3.54175 29.7917 3.75C29.7917 3.95825 29.5835 4.16675 29.5835 4.16675C29.5835 4.375 29.5835 4.375 29.5835 4.58325L29.5835 4.79175L29.5835 13.125C29.5835 14.375 30.4167 15.2083 31.6667 15.2083C32.9167 15.2083 33.7502 14.375 33.7502 13.125L33.7502 9.79175C36.4585 12.7083 37.9167 16.6667 37.9167 20.8333C37.9167 21.4583 37.9167 22.0833 37.7085 22.7083C37.5002 23.75 38.3335 24.7917 39.5835 25L39.7917 25C40.8335 25 41.6667 24.1667 41.8752 23.125C41.8752 22.2917 42.0835 21.6667 42.0835 20.8333C42.0835 15.8333 40.2085 11.0417 37.0835 7.29175L39.5835 7.29175L39.5835 7.29175ZM38.125 30.2083C37.9167 30 37.7083 29.7917 37.5 29.5833C37.2917 29.375 37.0833 29.375 36.875 29.375L36.6667 29.375L36.4583 29.375L28.125 29.375C26.875 29.375 26.0417 30.2083 26.0417 31.4583C26.0417 32.7083 26.875 33.5417 28.125 33.5417L31.875 33.5417C28.9583 36.25 25 37.7083 20.8333 37.7083C20.2083 37.7083 19.5833 37.7083 18.9583 37.5C17.9167 37.2917 16.875 38.125 16.6667 39.375C16.4583 40.625 17.2917 41.4583 18.5417 41.6667C19.375 41.6667 20 41.875 20.8333 41.875C25.8333 41.875 30.625 40 34.375 36.875L34.375 39.5833C34.375 40.8333 35.2083 41.6667 36.4583 41.6667C37.7083 41.6667 38.5417 40.8333 38.5417 39.5833L38.5417 31.25C38.5417 30.8333 38.3333 30.4167 38.125 30.2083L38.125 30.2083Z" id="Shape" fill="#684D78" fill-rule="evenodd" stroke="none" />
</svg>