<?xml version="1.0" encoding="utf-8"?>
<svg width="50px" height="50px" viewBox="0 0 50 50" version="1.1" xmlns:xlink="http://www.w3.org/1999/xlink" xmlns="http://www.w3.org/2000/svg">
  <path d="M29.0757 0C28.9236 0 28.7727 0.0307617 28.6321 0.0910645C28.4915 0.151367 28.3638 0.239502 28.2559 0.351074C26.9509 1.7041 26.218 3.53809 26.218 5.44995C26.218 7.36206 26.9509 9.19604 28.2559 10.5491C28.2791 10.573 28.3093 10.5852 28.3325 10.6067C28.2327 10.7317 28.1143 10.8376 28.019 10.9673L0.24292 48.0623C0.0698242 48.2937 -0.015625 48.5825 0.00244141 48.8745C0.0202637 49.1665 0.140625 49.4417 0.340576 49.6484C0.540771 49.8552 0.806885 49.9795 1.08887 49.9978C1.37109 50.0156 1.6499 49.9268 1.87329 49.7476L37.7083 20.9949C37.8289 20.8987 37.9265 20.7808 38.0425 20.6821L46.322 29.248C48.1335 31.123 48.1335 34.1714 46.322 36.0466C46.1104 36.2734 45.9934 36.5769 45.9961 36.8921C45.9988 37.2073 46.1208 37.5088 46.3362 37.7317C46.5515 37.9546 46.8428 38.0811 47.1472 38.0835C47.4517 38.0864 47.7449 37.9653 47.9639 37.7463C49.2678 36.3926 50 34.5591 50 32.6472C50 30.7356 49.2678 28.9021 47.9639 27.5483L39.7031 19.0017C42.5549 15.6338 43.9229 11.0276 43.3679 6.15918C43.3376 5.89136 43.2212 5.64185 43.0369 5.45117C42.8528 5.2605 42.6118 5.13989 42.353 5.10864C37.6431 4.53174 33.1887 5.9502 29.9326 8.90698C29.9187 8.89014 29.9094 8.86621 29.8979 8.84937C29.0283 7.94702 28.54 6.72461 28.54 5.44995C28.54 4.17554 29.0283 2.95288 29.8979 2.05078C30.0601 1.88232 30.1699 1.66821 30.2146 1.4353C30.2593 1.20215 30.2361 0.960693 30.1479 0.741211C30.0601 0.521973 29.9114 0.334473 29.7205 0.202393C29.5295 0.0705566 29.3052 0 29.0757 0L29.0757 0ZM39.4568 7.40942C40.0117 7.37817 40.5737 7.37573 41.1404 7.40942C41.3494 11.1716 40.2278 14.6792 38.061 17.3069L35.6455 14.8042L36.4653 13.9485C36.677 13.7217 36.7939 13.418 36.7913 13.103C36.7886 12.7878 36.6665 12.4863 36.4512 12.2634C36.2358 12.0405 35.9448 11.9141 35.6404 11.9114C35.3357 11.9084 35.0425 12.0298 34.8235 12.2488L31.5396 15.6482C31.3279 15.8748 31.2109 16.1785 31.2136 16.4937C31.2163 16.8088 31.3384 17.1104 31.5537 17.333C31.769 17.5559 32.0603 17.6824 32.3647 17.6851C32.6692 17.688 32.9624 17.5669 33.1816 17.3477L34.0059 16.499L36.405 18.9824C36.3608 19.0161 36.3262 19.0596 36.2842 19.0908L7.69531 42.0376L29.8557 12.4387C32.1179 9.41431 35.5852 7.63062 39.4568 7.40942L39.4568 7.40942Z" id="Shape" fill="#684D78" fill-rule="evenodd" stroke="none" />
</svg>