<?xml version="1.0" encoding="utf-8"?>
<svg width="67px" height="25px" viewBox="0 0 67 25" version="1.1" xmlns:xlink="http://www.w3.org/1999/xlink" xmlns="http://www.w3.org/2000/svg">
  <path d="M64.7666 2.71826L35.7334 2.71826C35.7334 2.71826 30.6042 4.17407 27.5342 5.40698C24.4639 6.63989 21.1755 7.24121 17.8667 7.1748C14.5576 7.24121 11.2695 6.63989 8.19922 5.40698C5.12891 4.17407 2.34009 2.33496 0 0L0 11.6311C0 19.0063 8.01758 25 17.8667 25L17.8667 20.5437C17.8667 19.9529 18.1021 19.386 18.5208 18.968C18.9397 18.5503 19.5076 18.3154 20.1001 18.3154C20.6924 18.3154 21.2605 18.5503 21.6792 18.968C22.0979 19.386 22.3333 19.9529 22.3333 20.5437L22.3333 25L26.8 25L26.8 20.5437C26.8 19.9529 27.0354 19.386 27.4541 18.968C27.8728 18.5503 28.4412 18.3154 29.0334 18.3154C29.6257 18.3154 30.1938 18.5503 30.6125 18.968C31.0313 19.386 31.2666 19.9529 31.2666 20.5437L31.2666 25L35.7334 25L35.7334 20.5437C35.7334 19.9529 35.9688 19.386 36.3875 18.968C36.8062 18.5503 37.3745 18.3154 37.9666 18.3154C38.5588 18.3154 39.1272 18.5503 39.5459 18.968C39.9646 19.386 40.2 19.9529 40.2 20.5437L40.2 25L44.6667 25L44.6667 20.5437C44.6667 19.9529 44.9021 19.386 45.3208 18.968C45.7395 18.5503 46.3076 18.3154 46.8999 18.3154C47.4922 18.3154 48.0605 18.5503 48.4792 18.968C48.8979 19.386 49.1333 19.9529 49.1333 20.5437L49.1333 25L53.6001 25L53.6001 20.5437C53.6001 19.9529 53.8354 19.386 54.2542 18.968C54.6729 18.5503 55.241 18.3154 55.8333 18.3154C56.4255 18.3154 56.9937 18.5503 57.4126 18.968C57.8313 19.386 58.0667 19.9529 58.0667 20.5437L58.0667 25L64.7666 25C65.3589 25 65.927 24.7651 66.3459 24.3474C66.7646 23.9297 67 23.3628 67 22.7717L67 4.94653C67 4.35571 66.7646 3.78882 66.3459 3.37109C65.927 2.95313 65.3589 2.71826 64.7666 2.71826L64.7666 2.71826Z" id="Path" fill="#684D78" stroke="none" />
</svg>