<?xml version="1.0" encoding="utf-8"?>
<svg width="50px" height="50px" viewBox="0 0 50 50" version="1.1" xmlns:xlink="http://www.w3.org/1999/xlink" xmlns="http://www.w3.org/2000/svg">
  <defs>
    <path d="M0 0L50 0L50 50L0 50L0 0Z" id="path_1" />
    <clipPath id="clip_1">
      <use xlink:href="#path_1" clip-rule="evenodd" fill-rule="evenodd" />
    </clipPath>
  </defs>
  <g id="Group">
    <path d="M0 0L50 0L50 50L0 50L0 0Z" id="Rectangle" fill="none" fill-rule="evenodd" stroke="none" />
    <g clip-path="url(#clip_1)">
      <path d="M27.9159 47.0432C27.1073 47.0432 26.4496 46.3855 26.4496 45.5769C26.4496 44.7683 27.1073 44.1106 27.9159 44.1106L38.7396 44.1106C41.1624 44.1106 43.1338 42.1392 43.1338 39.7163C43.1338 37.2931 41.1624 35.3221 38.7396 35.3221L29.2831 35.3221C34.6652 31.9342 38.2496 25.941 38.2496 19.125C38.2496 8.57926 29.6704 0 19.125 0C8.57926 0 0 8.57926 0 19.125C0 29.6704 8.57926 38.2496 19.125 38.2496L38.7396 38.2496C39.5478 38.2496 40.2058 38.9077 40.2058 39.716C40.2058 40.5246 39.5478 41.1822 38.7396 41.1822L27.9159 41.1822C25.4931 41.1822 23.5216 43.1537 23.5216 45.5765C23.5216 47.9997 25.4931 49.9712 27.9159 49.9712L49.9712 49.9712L49.9712 47.0432L27.9159 47.0432L27.9159 47.0432ZM4.60852 11.9468C8.84005 12.1992 12.6563 14.4848 14.8916 18.0358C13.8256 18.181 12.7718 18.3819 11.7333 18.6362C9.81485 16.2477 6.9311 14.8492 3.82544 14.8492C3.71717 14.8492 3.60889 14.8511 3.50061 14.8546C3.7774 13.8424 4.15026 12.8698 4.60852 11.9468L4.60852 11.9468ZM11.8424 4.66043C13.0689 4.04051 14.3842 3.57196 15.7643 3.27954C18.1891 4.61696 20.35 6.32801 22.2056 8.38179C21.5296 9.10735 20.8918 9.85802 20.2944 10.6346C17.984 7.98681 15.0838 5.94105 11.8424 4.66043L11.8424 4.66043ZM24.2983 6.33214C23.1861 5.11138 21.9768 3.99965 20.6771 3.00269C22.7058 3.19675 24.6265 3.76633 26.3688 4.64092C25.6563 5.17391 24.9647 5.73777 24.2983 6.33214L24.2983 6.33214ZM2.92798 19.125C2.92798 18.688 2.9459 18.2554 2.98021 17.8268C3.25967 17.7944 3.54179 17.7772 3.82544 17.7772C5.61541 17.7772 7.30206 18.4303 8.60442 19.5821C6.73438 20.2592 4.93069 21.1204 3.2143 22.1586C3.02711 21.1753 2.92798 20.1616 2.92798 19.125L2.92798 19.125ZM19.1251 20.6771C24.5259 20.6771 29.7097 22.196 34.1879 25.0794C33.8231 25.9998 33.3751 26.8782 32.8551 27.707C28.7894 25.0188 24.0741 23.6051 19.1251 23.6051C14.1757 23.6051 9.46078 25.0188 5.39474 27.707C4.87472 26.8782 4.42713 25.9998 4.06189 25.0794C8.54008 22.196 13.7239 20.6771 19.1251 20.6771L19.1251 20.6771ZM35.3217 19.125C35.3217 20.1616 35.223 21.1754 35.0358 22.1587C33.8592 21.4472 32.6419 20.8189 31.3899 20.276C32.4014 18.7876 33.6522 17.4807 35.0918 16.4033C35.2424 17.2885 35.3217 18.1975 35.3217 19.125L35.3217 19.125ZM28.5838 19.2199C27.6154 18.9092 26.6311 18.6461 25.6329 18.4327C26.6021 16.7414 27.7965 15.1817 29.1992 13.7791C30.3528 12.6254 31.6205 11.6082 32.9792 10.7424C33.4886 11.5812 33.9232 12.4699 34.2755 13.399C31.9819 14.9107 30.0429 16.8935 28.5838 19.2199L28.5838 19.2199ZM31.2351 8.38219C29.7608 9.3384 28.3845 10.4528 27.1286 11.7086C25.28 13.5573 23.7496 15.6496 22.5693 17.9387C21.5231 17.8231 20.466 17.7609 19.4011 17.7518C20.7752 14.7476 22.6711 12.0254 25.0585 9.63845C26.2861 8.41045 27.6232 7.301 29.0406 6.3269C29.834 6.94339 30.5687 7.63153 31.2351 8.38219L31.2351 8.38219ZM8.73372 6.71118C12.5992 7.74936 16.0396 9.99755 18.5661 13.1307C18.0015 14.0392 17.4853 14.976 17.019 15.9405C14.5386 12.3277 10.6796 9.8805 6.34058 9.19198C7.04856 8.28269 7.85107 7.45121 8.73372 6.71118L8.73372 6.71118ZM7.17285 30.044C10.7215 27.7432 14.8223 26.5331 19.125 26.5331C23.4278 26.5331 27.5282 27.7432 31.0769 30.044C30.3894 30.7958 29.6327 31.4832 28.8156 32.0951C25.885 30.3688 22.5559 29.4611 19.1247 29.4611C15.6938 29.4611 12.3647 30.3688 9.43403 32.0951C8.61741 31.4832 7.86023 30.7962 7.17285 30.044L7.17285 30.044ZM12.3898 33.8534C14.4901 32.8919 16.7788 32.389 19.125 32.389C21.4708 32.389 23.7594 32.8919 25.8601 33.8534C23.8079 34.7955 21.5268 35.3216 19.125 35.3216C16.7231 35.3216 14.4417 34.7955 12.3898 33.8534L12.3898 33.8534Z" id="Shape" fill="#684D78" fill-rule="evenodd" stroke="none" />
    </g>
  </g>
</svg>